<svg xmlns="http://www.w3.org/2000/svg" viewBox="0 0 21 24.526"><g id="レイヤー_2" data-name="レイヤー 2"><g id="レイヤー_1-2" data-name="レイヤー 1"><g id="レイヤー_2-2" data-name="レイヤー 2"><g id="レイヤー_1-2-2" data-name="レイヤー 1-2"><path d="M13.637,4.541A2.1,2.1,0,0,1,12.6,2.721h0a2.1,2.1,0,0,0-4.193-.242,1.954,1.954,0,0,0,0,.242h0a2.1,2.1,0,0,1-1.041,1.82C2.7,7.253,5.377,16.256.5,17.847V19.6h20V17.847C15.623,16.256,18.305,7.253,13.637,4.541Z" fill="none" stroke="#333" stroke-miterlimit="10"/><path d="M13.5,21.026a3.066,3.066,0,0,1-2.971,3,3.118,3.118,0,0,1-3.029-3Z" fill="none" stroke="#333" stroke-miterlimit="10"/></g></g><path d="M10.5,1.449a1,1,0,1,1-1,1,1,1,0,0,1,1-1Z" fill="#333"/></g></g></svg>