<svg xmlns="http://www.w3.org/2000/svg" viewBox="0 0 465.008 511.999"><g id="レイヤー_2" data-name="レイヤー 2"><g id="_4" data-name="4"><path d="M319.344,425.739V189.8q0-3.324-.246-6.647c-.082-.657-.082-1.4-.164-2.052s-.164-1.231-.247-1.8v-.492l-.246-1.478c0-.246-.082-.492-.082-.738-.082-.41-.164-.9-.246-1.313,0-.246-.082-.492-.082-.738,0-.082,0-.164-.082-.164L317.7,172.9c-.164-.657-.246-1.4-.41-2.052-.164-.492-.246-1.067-.411-1.641l-.246-.985a20.638,20.638,0,0,0-.574-2.134,1.165,1.165,0,0,0-.164-.492c0-.164-.082-.328-.082-.492a3.961,3.961,0,0,0-.329-.9,6.863,6.863,0,0,0-.328-1.231q-.246-.738-.492-1.477l-.246-.738c-.164-.492-.41-.985-.574-1.4a8.071,8.071,0,0,0-.41-1.313c-.082-.082-.082-.082-.082-.164a2.456,2.456,0,0,1-.328-.82c-.164-.328-.247-.657-.41-.985a9.646,9.646,0,0,1-.41-.9,5.055,5.055,0,0,1-.411-.985.254.254,0,0,1-.082-.164c-.164-.246-.246-.574-.411-.821-.164-.328-.328-.738-.492-1.066a7.549,7.549,0,0,0-.41-.821,4.4,4.4,0,0,0-.41-.9c-.164-.246-.246-.492-.41-.739a.286.286,0,0,0-.082-.164c-.246-.411-.41-.821-.657-1.231-.246-.492-.575-.985-.82-1.477a3.621,3.621,0,0,0-.329-.575c-.246-.492-.492-.9-.738-1.313a.08.08,0,0,1-.082-.082,19.66,19.66,0,0,0-1.067-1.724c-.164-.246-.328-.575-.492-.82-.246-.329-.41-.574-.574-.821v-.082a16.872,16.872,0,0,1-1.067-1.478c-.082-.082-.082-.164-.164-.246-.164-.246-.411-.575-.574-.821-.246-.246-.411-.574-.657-.82,0-.082-.082-.164-.082-.246a8.692,8.692,0,0,1-.82-.985c0-.082-.082-.082-.082-.164-.082,0-.082-.082-.164-.164a.08.08,0,0,0-.082-.082c-.328-.492-.656-.9-.985-1.313l-1.231-1.477a14.107,14.107,0,0,1-1.067-1.231c-.164-.164-.329-.41-.492-.574l-.164-.164a9.96,9.96,0,0,1-.9-.985c-.492-.492-.9-.985-1.4-1.477l-1.4-1.395-1.4-1.395c-.492-.41-.9-.821-1.395-1.231a.08.08,0,0,0-.082-.082l-.082-.082c-.41-.411-.9-.821-1.4-1.231-.082,0-.082-.082-.164-.082a16.65,16.65,0,0,0-1.313-1.149c-.492-.41-1.067-.821-1.559-1.231a13.83,13.83,0,0,0-1.149-.9c-.082-.082-.246-.164-.41-.328-.329-.246-.739-.492-1.067-.738l-.164-.164a1.132,1.132,0,0,1-.328-.246c-.082,0-.164-.082-.247-.082a5.762,5.762,0,0,0-1.149-.821l-.246-.246c-.574-.329-1.149-.739-1.641-1.067-.574-.328-1.067-.657-1.559-.985-.082,0-.082,0-.164-.082-1.066-.657-2.215-1.313-3.282-1.888-.657-.328-1.231-.656-1.887-.985a17.605,17.605,0,0,0-1.724-.9.3.3,0,0,0-.246-.082,12.4,12.4,0,0,0-1.477-.738,9.129,9.129,0,0,0-1.313-.575v-.082c-.329-.082-.657-.246-.985-.328-.492-.246-1.066-.492-1.64-.739a.3.3,0,0,0-.247-.082,10.185,10.185,0,0,0-1.394-.575h-.082a10.963,10.963,0,0,0-1.477-.574,2.082,2.082,0,0,0-.575-.164,1.385,1.385,0,0,0-.41-.164c-.411-.164-.821-.246-1.231-.41-.574-.164-1.067-.328-1.641-.492a1.188,1.188,0,0,0-.574-.164c-.575-.164-1.067-.328-1.642-.492l-1.723-.492a3.551,3.551,0,0,1-.41-.082c-.492-.082-.985-.246-1.477-.328a5.226,5.226,0,0,1-.574-.164,9.546,9.546,0,0,1-1.477-.328h-.246c-.164,0-.246-.082-.329-.082-.492-.082-1.067-.164-1.559-.246a.3.3,0,0,0-.246-.082,18.074,18.074,0,0,1-1.888-.329h-.082l-1.97-.246h-.082a10.06,10.06,0,0,0-1.559-.164,7.515,7.515,0,0,0-1.313-.082,1.6,1.6,0,0,0-.575-.082c-.082,0-.246-.082-.328-.082h-.9c-.082-.082-.082-.082-.164-.082a7.515,7.515,0,0,1-1.313-.082h-2.052a18.568,18.568,0,0,0-2.134-.082A85.324,85.324,0,0,0,162.2,142.128c-1.477,2.216-2.79,4.513-4.021,6.812-1.313,2.462-2.462,4.924-3.529,7.385q-1.477,3.693-2.708,7.632a29.35,29.35,0,0,0-.821,2.872,18.947,18.947,0,0,0-.574,2.052,92.963,92.963,0,0,0-2.38,15.182v1.067H93.01v-.82c2.872-75.585,64.913-136.231,140.659-136.231,2.134,0,4.267.082,6.4.164,1.4.082,2.708.082,4.021.246,3.2.246,6.319.575,9.438,1.067a31.276,31.276,0,0,1,3.857.574c1.887.329,3.775.657,5.663,1.067,1.97.411,3.857.9,5.745,1.395,2.3.575,4.513,1.231,6.811,1.887,1.887.657,3.775,1.231,5.663,1.969a86.78,86.78,0,0,1,9.027,3.693,41.52,41.52,0,0,1,4.35,1.97c2.052.985,4.1,2.052,6.073,3.118s3.939,2.216,5.908,3.447c1.888,1.149,3.857,2.38,5.663,3.693,1.806,1.231,3.611,2.462,5.417,3.857.082,0,.164.082.328.164,1.722,1.4,3.446,2.708,5.088,4.1a132.774,132.774,0,0,1,14.69,14.115c1.477,1.641,2.954,3.364,4.349,5.006.082.082.164.246.247.328,1.395,1.723,2.708,3.447,4.021,5.17,1.313,1.806,2.626,3.611,3.939,5.5,1.231,1.887,2.462,3.857,3.611,5.744,1.067,1.723,2.052,3.447,3.036,5.252a132.627,132.627,0,0,1,10.668,25.03c.575,1.724,1.067,3.447,1.559,5.252.492,1.641.9,3.283,1.313,5.006.164.657.328,1.395.492,2.052.328,1.723.657,3.365.984,5.088.328,1.641.658,3.283.821,4.924.329,2.134.657,4.267.821,6.4a40.283,40.283,0,0,1,.328,4.432,24.355,24.355,0,0,1,.246,3.447c.08,2.216.162,4.35.162,6.565V425.739" fill="#c3dfd0"/><path d="M118.942,358.693a95.668,95.668,0,0,0,29.051-4.432v71.478" fill="#c3dfd0"/><path d="M465.008,201.632l-.329,6.976L451.385,492.386A19.631,19.631,0,0,1,431.69,512H35.647a19.631,19.631,0,0,1-19.7-19.613l-.164-3.282L6.514,290.1,2.329,201.632a19.613,19.613,0,0,1,19.614-19.613H445.4A19.613,19.613,0,0,1,465.008,201.632Z" fill="#ead66c"/><path d="M295.809,316.5a62.141,62.141,0,1,0-84.966,57.814c-9.154,27.688-22.094,65.646-22.094,65.646h89.839S265.648,402,256.494,374.315A62.16,62.16,0,0,0,295.809,316.5Z" fill="#5b5743"/><path d="M462.679,201.632l-.329,6.976L449.056,492.386A19.631,19.631,0,0,1,429.361,512H33.318a19.631,19.631,0,0,1-19.7-19.613l-.164-3.282L4.185,290.1,0,201.632a19.613,19.613,0,0,1,19.614-19.613H231.34v23.224h85.675V141.725q0-3.324-.246-6.647c-.082-.657-.082-1.4-.164-2.052s-.164-1.231-.246-1.805v-.492l-.246-1.478c0-.246-.082-.492-.082-.738-.082-.41-.164-.9-.246-1.313,0-.246-.082-.492-.082-.738,0-.082,0-.164-.082-.164l-.246-1.477c-.164-.657-.246-1.395-.41-2.052-.164-.492-.246-1.067-.411-1.641l-.246-.985a20.638,20.638,0,0,0-.574-2.134,1.165,1.165,0,0,0-.164-.492c0-.164-.082-.328-.082-.492a3.961,3.961,0,0,0-.329-.9,6.863,6.863,0,0,0-.328-1.231q-.246-.738-.492-1.477l-.246-.738c-.164-.492-.41-.985-.574-1.4a8.071,8.071,0,0,0-.41-1.313c-.082-.082-.082-.082-.082-.164a2.456,2.456,0,0,1-.328-.82c-.164-.328-.247-.657-.41-.985a9.646,9.646,0,0,1-.41-.9,5.055,5.055,0,0,1-.411-.985.254.254,0,0,1-.082-.164c-.164-.246-.246-.574-.411-.821-.164-.328-.328-.738-.492-1.066a7.549,7.549,0,0,0-.41-.821,4.4,4.4,0,0,0-.41-.9c-.164-.246-.246-.492-.41-.739a.286.286,0,0,0-.082-.164c-.246-.411-.41-.821-.657-1.231-.246-.492-.575-.985-.82-1.477a3.621,3.621,0,0,0-.329-.575c-.246-.492-.492-.9-.738-1.313a.08.08,0,0,1-.082-.082,19.66,19.66,0,0,0-1.067-1.724c-.164-.246-.328-.575-.492-.82-.246-.329-.41-.574-.574-.821v-.082a16.872,16.872,0,0,1-1.067-1.478c-.082-.082-.082-.164-.164-.246-.164-.246-.411-.575-.574-.821-.246-.246-.411-.574-.657-.82,0-.082-.082-.164-.082-.246a8.692,8.692,0,0,1-.82-.985c0-.082-.082-.082-.082-.164-.082,0-.082-.082-.164-.164a.08.08,0,0,0-.082-.082c-.328-.492-.656-.9-.985-1.313L296.5,85.511a14.107,14.107,0,0,1-1.067-1.231c-.164-.164-.329-.41-.492-.574l-.164-.164a9.96,9.96,0,0,1-.9-.985c-.492-.492-.9-.985-1.395-1.477l-1.4-1.395-1.395-1.395c-.492-.41-.9-.821-1.395-1.231a.08.08,0,0,0-.082-.082l-.082-.082c-.41-.411-.9-.821-1.395-1.231-.082,0-.082-.082-.164-.082a16.65,16.65,0,0,0-1.313-1.149c-.492-.41-1.067-.821-1.559-1.231a13.83,13.83,0,0,0-1.149-.9c-.082-.082-.246-.164-.41-.328-.329-.246-.739-.492-1.067-.738l-.164-.164a1.132,1.132,0,0,1-.328-.246c-.082,0-.164-.082-.247-.082a5.762,5.762,0,0,0-1.149-.821l-.246-.246c-.574-.329-1.149-.739-1.641-1.067-.574-.328-1.067-.657-1.559-.985-.082,0-.082,0-.164-.082-1.066-.657-2.215-1.313-3.282-1.888-.657-.328-1.231-.656-1.887-.985a17.605,17.605,0,0,0-1.724-.9.3.3,0,0,0-.246-.082,12.4,12.4,0,0,0-1.477-.738,9.129,9.129,0,0,0-1.313-.575v-.082c-.329-.082-.657-.246-.985-.328-.492-.246-1.067-.492-1.641-.739a.3.3,0,0,0-.246-.082,10.145,10.145,0,0,0-1.395-.575H261.3a10.963,10.963,0,0,0-1.477-.574,2.082,2.082,0,0,0-.575-.164,1.385,1.385,0,0,0-.41-.164c-.41-.164-.82-.246-1.231-.41-.574-.164-1.067-.328-1.641-.492a1.188,1.188,0,0,0-.574-.164c-.575-.164-1.067-.328-1.641-.492l-1.723-.492a3.551,3.551,0,0,1-.41-.082c-.492-.082-.985-.246-1.477-.328a5.226,5.226,0,0,1-.574-.164,9.546,9.546,0,0,1-1.477-.328h-.246c-.164,0-.246-.082-.329-.082-.492-.082-1.067-.164-1.559-.246a.3.3,0,0,0-.246-.082,18.074,18.074,0,0,1-1.888-.329h-.082l-1.97-.246h-.082a10.06,10.06,0,0,0-1.559-.164,7.515,7.515,0,0,0-1.313-.082,1.6,1.6,0,0,0-.575-.082c-.082,0-.246-.082-.328-.082h-.9c-.082-.082-.082-.082-.164-.082a7.515,7.515,0,0,1-1.313-.082h-2.052a18.568,18.568,0,0,0-2.134-.082,85.324,85.324,0,0,0-71.478,38.981c-1.477,2.216-2.79,4.513-4.021,6.812-1.313,2.462-2.462,4.924-3.529,7.385q-1.477,3.693-2.708,7.632c-.246.9-.575,1.887-.821,2.872a18.947,18.947,0,0,0-.574,2.052,92.963,92.963,0,0,0-2.38,15.182v1.067H90.681v-.82C93.553,60.646,155.594,0,231.34,0c2.134,0,4.267.082,6.4.164,1.395.082,2.708.082,4.021.246,3.2.246,6.319.575,9.438,1.067a31.276,31.276,0,0,1,3.857.574c1.888.329,3.775.657,5.663,1.067,1.97.411,3.857.9,5.745,1.4,2.3.575,4.513,1.231,6.811,1.887,1.887.657,3.775,1.231,5.663,1.969a86.78,86.78,0,0,1,9.027,3.693,41.52,41.52,0,0,1,4.35,1.97c2.052.985,4.1,2.052,6.073,3.118s3.939,2.216,5.908,3.447c1.888,1.149,3.857,2.38,5.663,3.693,1.806,1.231,3.611,2.462,5.417,3.857.082,0,.164.082.328.164,1.723,1.4,3.447,2.708,5.088,4.1a132.774,132.774,0,0,1,14.69,14.115c1.477,1.641,2.954,3.364,4.349,5.006.082.082.164.246.247.328,1.395,1.723,2.708,3.447,4.021,5.17,1.313,1.806,2.626,3.611,3.939,5.5,1.231,1.887,2.462,3.857,3.611,5.744,1.067,1.723,2.052,3.447,3.036,5.252a132.627,132.627,0,0,1,10.668,25.03c.575,1.724,1.067,3.447,1.559,5.252.492,1.641.9,3.283,1.313,5.006.164.657.328,1.395.492,2.052.328,1.723.657,3.365.985,5.088.328,1.641.657,3.283.82,4.924.329,2.134.657,4.267.821,6.4a40.283,40.283,0,0,1,.328,4.432,24.355,24.355,0,0,1,.246,3.447c.082,2.216.164,4.349.164,6.565v40.294h70.986A19.613,19.613,0,0,1,462.679,201.632Z" fill="none"/><path d="M238.807,55.476l-7.468,7.468V55.066a18.577,18.577,0,0,1,2.134.082h2.052a7.515,7.515,0,0,0,1.313.082c.082,0,.082,0,.164.082h.9c.082,0,.246.082.328.082A1.6,1.6,0,0,1,238.807,55.476Z" fill="none"/></g></g></svg>