<svg xmlns="http://www.w3.org/2000/svg" xmlns:xlink="http://www.w3.org/1999/xlink" viewBox="0 0 325.48 70.944"><defs><clipPath id="clip-path" transform="translate(0 -2.521)"><path d="M78.182,27.722c0,5.159-5.53,9.38-12.289,9.38H17.664c-6.759,0-12.288-4.221-12.288-9.38s5.529-9.381,12.288-9.381H65.893C72.652,18.341,78.182,22.562,78.182,27.722Z" fill="none"/></clipPath><clipPath id="clip-path-2" transform="translate(0 -2.521)"><path d="M78.182,9.381c0,5.159-5.53,9.38-12.289,9.38H17.664c-6.759,0-12.288-4.221-12.288-9.38S10.905,0,17.664,0H65.893C72.652,0,78.182,4.221,78.182,9.381Z" fill="none"/></clipPath></defs><g id="レイヤー_2" data-name="レイヤー 2"><g id="レイヤー_1-2" data-name="レイヤー 1"><path d="M104.58,24.847s-7.395,23.639-8.716,32.381c0,0,11.226-4.556,19.281-28.072C115.145,29.156,112.5,25.093,104.58,24.847Z" transform="translate(0 -2.521)" fill="#e33339" stroke="#fff" stroke-miterlimit="10" stroke-width="1.402"/><path d="M118.051,31.618a24.5,24.5,0,0,1,10.565-5.786s8.716,16.744,11.093,29.426C139.709,55.258,125.71,51.687,118.051,31.618Z" transform="translate(0 -2.521)" fill="#e33339" stroke="#fff" stroke-miterlimit="10" stroke-width="1.402"/><path d="M140.6,19.121a7.318,7.318,0,0,0-7.561,7.049,7.579,7.579,0,0,0,15.121,0A7.318,7.318,0,0,0,140.6,19.121Zm.033,10.4a2.345,2.345,0,1,1,2.509-2.339A2.429,2.429,0,0,1,140.634,29.525Z" transform="translate(0 -2.521)" fill="#e33339" stroke="#fff" stroke-miterlimit="10" stroke-width="1.402"/><path d="M152.812,25.986l35.863-1.034s-.616,5.974-8.627,17.694c0,0,6.9,9.192,11.955,12.409,0,0-14.666.8-19.6-6.09a60.145,60.145,0,0,1-14.3,8.158s-.247-5.055,11.461-19.533l-15.652-.344S152.566,29.662,152.812,25.986Z" transform="translate(0 -2.521)" fill="#e33339" stroke="#fff" stroke-miterlimit="10" stroke-width="1.423"/><path d="M247.828,26.088l35.619-1.027s-.612,5.934-8.568,17.574c0,0,6.855,9.129,11.873,12.325,0,0-14.566.8-19.462-6.048a59.771,59.771,0,0,1-14.2,8.1s-.245-5.021,11.384-19.4l-15.546-.343S247.583,29.74,247.828,26.088Z" transform="translate(0 -2.521)" fill="#e33339" stroke="#fff" stroke-miterlimit="10" stroke-width="1.413"/><path d="M303.612,23.024v10.87H324.8s.986,10.41-21.183,13.166v9.645s-13.3-5.818-14.122-32.15C289.49,24.555,297.208,21.033,303.612,23.024Z" transform="translate(0 -2.521)" fill="#e33339" stroke="#fff" stroke-miterlimit="10" stroke-width="1.355"/><path d="M195.572,26.481l13.72-1.631V19.709a42.3,42.3,0,0,1,9.55-.627v5.267l15.2-.251s1.211,7.023.672,11.788l-15.065.627s-.4,19.814-6.187,20.315c0,0-2.938-.3-2.152-18.915l-14.662-1.149S194.9,38.645,195.572,26.481Z" transform="translate(0 -2.521)" fill="#e33339" stroke="#fff" stroke-miterlimit="10" stroke-width="1.521"/><path d="M222.609,40.777a19.8,19.8,0,0,1,11.029-.753s.807,10.66,0,15.049C233.638,55.073,224.492,54.2,222.609,40.777Z" transform="translate(0 -2.521)" fill="#e33339" stroke="#fff" stroke-miterlimit="10" stroke-width="1.521"/><path d="M198.262,40.651s8.6-1.506,10.761,0c0,0-1.076,10.91-10.761,15.174A41.588,41.588,0,0,1,198.262,40.651Z" transform="translate(0 -2.521)" fill="#e33339" stroke="#fff" stroke-miterlimit="10" stroke-width="1.521"/><path d="M241.279,9.609a7.6,7.6,0,0,0-7.849,7.318,7.868,7.868,0,0,0,15.7,0A7.6,7.6,0,0,0,241.279,9.609Zm0,10.778a2.864,2.864,0,0,1-2.959-2.759,2.966,2.966,0,0,1,5.918,0A2.864,2.864,0,0,1,241.279,20.387Z" transform="translate(0 -2.521)" fill="#e33339" stroke="#fff" stroke-miterlimit="10" stroke-width="1.521"/><rect x="24.952" y="44.493" width="33.653" height="10.222" transform="translate(-7.825 88.861) rotate(-90)" fill="#e33339"/><path d="M10.9,48.267s30.884,45.134,61.767,0" transform="translate(0 -2.521)" fill="none" stroke="#e33339" stroke-linejoin="round" stroke-width="8.17"/><path d="M63.121,43.24s17.021.964,14.847,17.765" transform="translate(0 -2.521)" fill="none" stroke="#e33339" stroke-linecap="round" stroke-miterlimit="10" stroke-width="6.684"/><path d="M4.377,59.417s2.67-12.73,14.415-14.59" transform="translate(0 -2.521)" fill="none" stroke="#e33339" stroke-linecap="round" stroke-linejoin="round" stroke-width="6.684"/><g clip-path="url(#clip-path)"><path d="M79.647,35.1c-7.509,1.052-7.752-2.446-15.334-2.446s-7.585,2.458-15.17,2.458-7.585-2.458-15.17-2.458S26.387,35.11,18.8,35.11s-7.489-1.4-15-2.446c-1.05-.147-1.4.156-1.4-.9s2.458-1.06,2.458-2.121S2.4,28.579,2.4,27.518s2.458-1.063,2.458-2.125-2.452-3.194-1.4-3.342C10.967,21,11.211,24.5,18.793,24.5s7.585-2.458,15.169-2.458S41.547,24.5,49.132,24.5s7.586-2.458,15.172-2.458,7.489,1.4,15,2.446c1.051.147,1.4-.157,1.4.9s-2.457,1.06-2.457,2.121,2.457,1.06,2.457,2.121-2.664,1.365-2.426,2.4C78.684,33.8,80.7,34.95,79.647,35.1Z" transform="translate(0 -2.521)" fill="#e33339"/><path d="M79.647,35.1c-7.509,1.052-7.752-2.446-15.334-2.446s-7.585,2.458-15.17,2.458-7.585-2.458-15.17-2.458S26.387,35.11,18.8,35.11s-7.489-1.4-15-2.446c-1.05-.147-1.4.156-1.4-.9s2.458-1.06,2.458-2.121S2.4,28.579,2.4,27.518s2.458-1.063,2.458-2.125-2.452-3.194-1.4-3.342C10.967,21,11.211,24.5,18.793,24.5s7.585-2.458,15.169-2.458S41.547,24.5,49.132,24.5s7.586-2.458,15.172-2.458,7.489,1.4,15,2.446c1.051.147,1.4-.157,1.4.9s-2.457,1.06-2.457,2.121,2.457,1.06,2.457,2.121-2.664,1.365-2.426,2.4C78.684,33.8,80.7,34.95,79.647,35.1Z" transform="translate(0 -2.521)" fill="#e33339"/></g><g clip-path="url(#clip-path-2)"><path d="M79.647,16.757c-7.509,1.052-7.752-2.446-15.334-2.446s-7.585,2.458-15.17,2.458-7.585-2.458-15.17-2.458S26.387,16.769,18.8,16.769s-7.489-1.4-15-2.446c-1.05-.147-1.4.156-1.4-.9s2.458-1.06,2.458-2.121S2.4,10.238,2.4,9.177,4.858,8.114,4.858,7.052,2.406,3.858,3.459,3.71c7.508-1.052,7.752,2.446,15.334,2.446S26.378,3.7,33.962,3.7s7.585,2.458,15.17,2.458S56.718,3.7,64.3,3.7s7.489,1.4,15,2.446c1.051.147,1.4-.156,1.4.9s-2.457,1.06-2.457,2.121,2.457,1.06,2.457,2.121-2.664,1.365-2.426,2.4C78.684,15.454,80.7,16.609,79.647,16.757Z" transform="translate(0 -2.521)" fill="#e33339"/><path d="M79.647,16.757c-7.509,1.052-7.752-2.446-15.334-2.446s-7.585,2.458-15.17,2.458-7.585-2.458-15.17-2.458S26.387,16.769,18.8,16.769s-7.489-1.4-15-2.446c-1.05-.147-1.4.156-1.4-.9s2.458-1.06,2.458-2.121S2.4,10.238,2.4,9.177,4.858,8.114,4.858,7.052,2.406,3.858,3.459,3.71c7.508-1.052,7.752,2.446,15.334,2.446S26.378,3.7,33.962,3.7s7.585,2.458,15.17,2.458S56.718,3.7,64.3,3.7s7.489,1.4,15,2.446c1.051.147,1.4-.156,1.4.9s-2.457,1.06-2.457,2.121,2.457,1.06,2.457,2.121-2.664,1.365-2.426,2.4C78.684,15.454,80.7,16.609,79.647,16.757Z" transform="translate(0 -2.521)" fill="#e33339"/></g><path d="M7.954,3.65s-5.843,5.613,0,11.373c0,0,3.445,1,4.5,1.216,0,0,7.973,1.664,14.26-.812a21.091,21.091,0,0,1,3.719-.874,11.67,11.67,0,0,1,1.613-.184,33.43,33.43,0,0,1,4.995.1,24.293,24.293,0,0,1,3.986.895L43,15.989s1.549.411,1.936.446c0,0,1.3.213,1.721.233,0,0,1.8.118,2.112.091,0,0,1.916.007,2.595-.065a21.222,21.222,0,0,0,3.714-.652l3.293-1A20.887,20.887,0,0,1,60.99,14.5s1.838-.2,2.279-.171a21.117,21.117,0,0,1,2.924.07,13.111,13.111,0,0,1,2.338.365,20.6,20.6,0,0,1,2.529.8s2.562,1,2.773.968a13.232,13.232,0,0,0,2.252-1.929A7.647,7.647,0,0,0,77.26,5.815s-2.6-.489-2.821-.6c0,0-2.068-.541-2.147-.566,0,0-1.736-.451-1.994-.481a33.586,33.586,0,0,0-3.848-.428s-2.9-.1-3.971.018a19.967,19.967,0,0,0-5.067.948l-2.283.711A21.772,21.772,0,0,1,52.2,6s-1.683.18-2.579.153a28.863,28.863,0,0,1-3.425-.138,21.151,21.151,0,0,1-3.978-.869,23.993,23.993,0,0,0-16.607.011,22.271,22.271,0,0,1-8.413.948,18.962,18.962,0,0,1-4.144-.843A35.148,35.148,0,0,0,7.954,3.65Z" transform="translate(0 -2.521)" fill="none" stroke="#fff" stroke-miterlimit="10" stroke-width="2.089"/><path d="M36.668,32.778V63.337S26.327,61.071,16.589,48.892A12.445,12.445,0,0,1,19.82,48,3.308,3.308,0,0,0,21.9,43.579a3.4,3.4,0,0,0-3.738-2.037A19.306,19.306,0,0,0,6.394,48.267S1.705,53.9,1.046,59.417A3.331,3.331,0,0,0,3.794,62.74,3.377,3.377,0,0,0,7.566,60.4a21.034,21.034,0,0,1,1.739-4.6s.725-1.294.992-1.651a64.044,64.044,0,0,0,14.432,12.7,40.632,40.632,0,0,0,9.255,4.206A31.344,31.344,0,0,0,43.4,72.416a29.82,29.82,0,0,0,14.577-4.089A45.859,45.859,0,0,0,69.3,59.157s4.2-4.865,4.654-5.655c0,0,.509.623.8,3.337a16.831,16.831,0,0,1-.106,3.7,3.635,3.635,0,0,0,1.124,2.986,3.435,3.435,0,0,0,2.762.767,3.3,3.3,0,0,0,2.3-1.568,4.178,4.178,0,0,0,.56-2.167,25.142,25.142,0,0,0-.114-5.611,18.4,18.4,0,0,0-3.119-7.535s-2.852-4.487-9.719-6.489a18.57,18.57,0,0,0-5.883-1,3.369,3.369,0,0,0-2.714,3.895,3.246,3.246,0,0,0,2.7,2.717,17.686,17.686,0,0,1,3.416.622,16.015,16.015,0,0,1,2,.689S63.313,54.169,59.836,57c0,0-5.749,5.567-12.946,6.9V35.035s5.6.43,9.222-.957c0,0,4.193-1.506,6.893-1.387a22.059,22.059,0,0,1,2.958.026,15.909,15.909,0,0,1,2.739.428,17.6,17.6,0,0,1,2.095.664s2.462.959,3.012,1.068a9.553,9.553,0,0,0,3.343-3.411,7.119,7.119,0,0,0,.909-5.072,7.938,7.938,0,0,0-.8-2.232s-2.424-.435-4.34-1.008a28.674,28.674,0,0,0-10.6-1.053,21.889,21.889,0,0,0-5.29,1.066,22.918,22.918,0,0,1-5.374,1.225s-.8.3-5.519-.039c0,0-1.529-.207-2.218-.39,0,0-.928-.224-1.26-.343l-1.507-.473-.6-.176a14.359,14.359,0,0,0-2.926-.693s-1.294-.177-1.864-.185c0,0-1.126-.062-1.807-.054,0,0-1.136,0-1.883.057,0,0-1.038.074-1.137.1,0,0-1.185.156-1.657.266,0,0-1.1.24-1.6.4,0,0-.5.16-.528.167l-.616.2-.55.171s-.314.106-.413.133l-.424.131a15.624,15.624,0,0,1-1.552.4s-.879.179-1.57.268c0,0-1.037.123-1.662.138,0,0-.845.042-1.3.04,0,0-.734.005-1.327-.025a17.674,17.674,0,0,1-2.494-.285,16.8,16.8,0,0,1-2.276-.6s-.967-.362-1.378-.511l-.724-.283a16.345,16.345,0,0,0-1.587-.52,12.849,12.849,0,0,0-1.329-.285,8.26,8.26,0,0,0-2.581,5.735,7.434,7.434,0,0,0,2.537,5.689s3.275.807,3.943,1.036a31.248,31.248,0,0,0,4.109.6,40.122,40.122,0,0,0,6.182-.1A22.011,22.011,0,0,0,26.8,33.762a18.14,18.14,0,0,1,3.583-.878,21.514,21.514,0,0,1,2.915-.211A26.548,26.548,0,0,1,36.668,32.778Z" transform="translate(0 -2.521)" fill="none" stroke="#fff" stroke-miterlimit="10" stroke-width="2.089"/></g></g></svg>