<svg xmlns="http://www.w3.org/2000/svg" xmlns:xlink="http://www.w3.org/1999/xlink" viewBox="0 0 53.498 45.981"><defs><clipPath id="clip-path" transform="translate(0 -1.634)"><path d="M50.672,17.967c0,3.344-3.584,6.08-7.964,6.08H11.448c-4.38,0-7.964-2.736-7.964-6.08s3.584-6.08,7.964-6.08h31.26C47.088,11.887,50.672,14.623,50.672,17.967Z" fill="none"/></clipPath><clipPath id="clip-path-2" transform="translate(0 -1.634)"><path d="M50.672,6.08c0,3.344-3.584,6.08-7.964,6.08H11.448c-4.38,0-7.964-2.736-7.964-6.08S7.068,0,11.448,0h31.26C47.088,0,50.672,2.736,50.672,6.08Z" fill="none"/></clipPath></defs><g id="レイヤー_2" data-name="レイヤー 2"><g id="レイヤー_1-2" data-name="レイヤー 1"><rect x="16.172" y="28.837" width="21.812" height="6.625" transform="translate(-5.072 57.594) rotate(-90)" fill="#a5a5a5" stroke="#a5a5a5" stroke-miterlimit="10"/><path d="M7.061,31.284s20.017,29.252,40.034,0" transform="translate(0 -1.634)" fill="none" stroke="#a5a5a5" stroke-linejoin="round" stroke-width="5.295"/><path d="M40.911,28.025s11.032.625,9.623,11.514" transform="translate(0 -1.634)" fill="none" stroke="#a5a5a5" stroke-linecap="round" stroke-miterlimit="10" stroke-width="4.332"/><path d="M2.837,38.51s1.73-8.251,9.343-9.456" transform="translate(0 -1.634)" fill="none" stroke="#a5a5a5" stroke-linecap="round" stroke-linejoin="round" stroke-width="4.332"/><g clip-path="url(#clip-path)"><path d="M51.622,22.748c-4.867.682-5.025-1.585-9.939-1.585s-4.916,1.593-9.832,1.593-4.914-1.593-9.828-1.593-4.918,1.593-9.836,1.593-4.854-.905-9.725-1.586c-.68-.1-.906.1-.906-.585s1.593-.686,1.593-1.373-1.593-.688-1.593-1.375,1.593-.689,1.593-1.378-1.59-2.071-.907-2.167c4.866-.682,5.024,1.585,9.938,1.585s4.916-1.593,9.832-1.593,4.914,1.593,9.829,1.593,4.917-1.593,9.835-1.593,4.855.9,9.725,1.586c.681.1.907-.1.907.585s-1.593.687-1.593,1.373,1.593.688,1.593,1.375-1.727.885-1.573,1.557C51,21.9,52.3,22.652,51.622,22.748Z" transform="translate(0 -1.634)" fill="#a5a5a5"/><path d="M51.622,22.748c-4.867.682-5.025-1.585-9.939-1.585s-4.916,1.593-9.832,1.593-4.914-1.593-9.828-1.593-4.918,1.593-9.836,1.593-4.854-.905-9.725-1.586c-.68-.1-.906.1-.906-.585s1.593-.686,1.593-1.373-1.593-.688-1.593-1.375,1.593-.689,1.593-1.378-1.59-2.071-.907-2.167c4.866-.682,5.024,1.585,9.938,1.585s4.916-1.593,9.832-1.593,4.914,1.593,9.829,1.593,4.917-1.593,9.835-1.593,4.855.9,9.725,1.586c.681.1.907-.1.907.585s-1.593.687-1.593,1.373,1.593.688,1.593,1.375-1.727.885-1.573,1.557C51,21.9,52.3,22.652,51.622,22.748Z" transform="translate(0 -1.634)" fill="#a5a5a5"/></g><g clip-path="url(#clip-path-2)"><path d="M51.622,10.861c-4.867.682-5.025-1.586-9.939-1.586s-4.916,1.593-9.832,1.593-4.914-1.593-9.828-1.593-4.918,1.593-9.836,1.593-4.854-.9-9.725-1.585c-.68-.095-.906.1-.906-.586s1.593-.686,1.593-1.372S1.556,6.637,1.556,5.949,3.149,5.26,3.149,4.571,1.559,2.5,2.242,2.4C7.108,1.723,7.266,3.99,12.18,3.99S17.1,2.4,22.012,2.4,26.926,3.99,31.841,3.99,36.758,2.4,41.676,2.4,46.531,3.3,51.4,3.982c.681.095.907-.1.907.586s-1.593.686-1.593,1.372,1.593.688,1.593,1.376-1.727.885-1.573,1.556C51,10.016,52.3,10.765,51.622,10.861Z" transform="translate(0 -1.634)" fill="#a5a5a5"/><path d="M51.622,10.861c-4.867.682-5.025-1.586-9.939-1.586s-4.916,1.593-9.832,1.593-4.914-1.593-9.828-1.593-4.918,1.593-9.836,1.593-4.854-.9-9.725-1.585c-.68-.095-.906.1-.906-.586s1.593-.686,1.593-1.372S1.556,6.637,1.556,5.949,3.149,5.26,3.149,4.571,1.559,2.5,2.242,2.4C7.108,1.723,7.266,3.99,12.18,3.99S17.1,2.4,22.012,2.4,26.926,3.99,31.841,3.99,36.758,2.4,41.676,2.4,46.531,3.3,51.4,3.982c.681.095.907-.1.907.586s-1.593.686-1.593,1.372,1.593.688,1.593,1.376-1.727.885-1.573,1.556C51,10.016,52.3,10.765,51.622,10.861Z" transform="translate(0 -1.634)" fill="#a5a5a5"/></g><path d="M5.155,2.366S1.368,6,5.155,9.737c0,0,2.233.652,2.916.788,0,0,5.168,1.079,9.243-.526a13.691,13.691,0,0,1,2.41-.567,7.545,7.545,0,0,1,1.046-.119,21.8,21.8,0,0,1,3.237.065,15.765,15.765,0,0,1,2.584.581l1.277.4s1.005.267,1.255.289c0,0,.842.138,1.116.151,0,0,1.168.076,1.368.059,0,0,1.243.005,1.682-.042A13.786,13.786,0,0,0,35.7,10.4l2.134-.649a13.542,13.542,0,0,1,1.7-.35s1.191-.128,1.477-.111a13.538,13.538,0,0,1,1.9.046,8.477,8.477,0,0,1,1.515.236,13.281,13.281,0,0,1,1.639.521s1.661.644,1.8.627a8.58,8.58,0,0,0,1.46-1.25,4.958,4.958,0,0,0,.762-5.7s-1.688-.317-1.829-.389c0,0-1.34-.351-1.391-.367,0,0-1.125-.293-1.292-.312a21.725,21.725,0,0,0-2.5-.277s-1.879-.069-2.574.011a12.935,12.935,0,0,0-3.283.615l-1.48.461a14.188,14.188,0,0,1-1.9.375,16.687,16.687,0,0,1-1.672.1,18.68,18.68,0,0,1-2.22-.089,13.737,13.737,0,0,1-2.578-.563A15.545,15.545,0,0,0,16.6,3.34a14.435,14.435,0,0,1-5.453.614,12.306,12.306,0,0,1-2.686-.546A22.758,22.758,0,0,0,5.155,2.366Z" transform="translate(0 -1.634)" fill="none" stroke="#fff" stroke-miterlimit="10" stroke-width="1.354"/><path d="M23.766,21.244V41.051s-6.7-1.469-13.014-9.363a8.074,8.074,0,0,1,2.094-.58A2.145,2.145,0,0,0,14.2,28.245a2.2,2.2,0,0,0-2.423-1.32,12.513,12.513,0,0,0-7.628,4.359S1.105,34.934.678,38.51a2.159,2.159,0,0,0,1.781,2.154A2.19,2.19,0,0,0,4.9,39.15a13.652,13.652,0,0,1,1.127-2.98s.47-.838.643-1.069a41.528,41.528,0,0,0,9.353,8.232,26.353,26.353,0,0,0,6,2.726,20.308,20.308,0,0,0,6.1.876,19.33,19.33,0,0,0,9.448-2.65,29.718,29.718,0,0,0,7.342-5.943s2.72-3.153,3.016-3.666a4.813,4.813,0,0,1,.518,2.163,10.891,10.891,0,0,1-.068,2.4,2.352,2.352,0,0,0,.728,1.935,2.225,2.225,0,0,0,1.79.5,2.136,2.136,0,0,0,1.49-1.017,2.715,2.715,0,0,0,.363-1.4,16.349,16.349,0,0,0-.074-3.637,11.932,11.932,0,0,0-2.022-4.883,11.483,11.483,0,0,0-6.3-4.206,12.016,12.016,0,0,0-3.813-.648A2.183,2.183,0,0,0,38.787,28.4a2.1,2.1,0,0,0,1.747,1.761,11.448,11.448,0,0,1,2.214.4,10.405,10.405,0,0,1,1.3.446,41.507,41.507,0,0,1-5.265,5.929,18.714,18.714,0,0,1-8.39,4.474V22.707a16.909,16.909,0,0,0,5.977-.62,15.262,15.262,0,0,1,4.468-.9,14.312,14.312,0,0,1,1.917.017,10.293,10.293,0,0,1,1.775.277,11.411,11.411,0,0,1,1.358.431s1.595.621,1.952.692a6.19,6.19,0,0,0,2.167-2.211,4.613,4.613,0,0,0,.589-3.287,5.128,5.128,0,0,0-.517-1.447s-1.571-.282-2.813-.653a18.577,18.577,0,0,0-6.866-.683,14.171,14.171,0,0,0-3.429.692,14.9,14.9,0,0,1-3.483.794,12.665,12.665,0,0,1-3.577-.026s-.991-.134-1.438-.253c0,0-.6-.145-.816-.222L26.678,15l-.388-.114a9.362,9.362,0,0,0-1.9-.449s-.839-.115-1.208-.12c0,0-.73-.04-1.172-.035,0,0-.736,0-1.22.037,0,0-.673.048-.737.063,0,0-.768.1-1.074.171,0,0-.715.156-1.039.257,0,0-.322.1-.342.108l-.4.127-.357.111s-.2.068-.267.086l-.275.085a10.245,10.245,0,0,1-1.006.259s-.57.115-1.018.173c0,0-.672.08-1.077.09,0,0-.548.027-.842.025,0,0-.476,0-.86-.016a11.426,11.426,0,0,1-1.616-.184,10.955,10.955,0,0,1-1.475-.389s-.627-.235-.894-.331l-.469-.184a10.459,10.459,0,0,0-1.029-.337,8.246,8.246,0,0,0-.861-.184,5.35,5.35,0,0,0-1.673,3.716,4.82,4.82,0,0,0,1.645,3.688s2.122.523,2.555.671a20.162,20.162,0,0,0,2.664.387,25.835,25.835,0,0,0,4.006-.068,14.229,14.229,0,0,0,3.017-.763,11.781,11.781,0,0,1,2.322-.569,14.117,14.117,0,0,1,1.889-.137A17.378,17.378,0,0,1,23.766,21.244Z" transform="translate(0 -1.634)" fill="none" stroke="#fff" stroke-miterlimit="10" stroke-width="1.354"/></g></g></svg>