<svg xmlns="http://www.w3.org/2000/svg" viewBox="0 0 422.99 510.958"><g id="レイヤー_2" data-name="レイヤー 2"><g id="_2" data-name="2"><rect x="160.328" y="193.381" width="102.33" height="21.923" fill="#333"/><polygon points="222.457 293.878 222.457 255.517 262.658 255.517 262.658 233.578 160.328 233.578 160.328 255.517 200.525 255.517 200.525 293.878 222.457 293.878" fill="#333"/><path d="M154.249,318.463H140.218l-.55.558v36.306l.55.558h5.391l.554-.558V342.068l.328-.324h7.758c7.265,0,12.325-4.684,12.325-11.665C166.573,323.138,161.513,318.463,154.249,318.463Zm-.385,17.392h-7.373l-.328-.332v-10.9l.328-.331h7.373c3.851,0,6.217,2.37,6.217,5.784C160.081,333.55,157.715,335.855,153.864,335.855Z" fill="#333"/><path d="M191.154,317.855c-6.44,0-11.281,3.091-13.207,9.028-.772,2.314-.991,4.4-.991,10.29s.219,7.976.991,10.3c1.926,5.93,6.767,9.012,13.207,9.012,6.492,0,11.333-3.082,13.259-9.012.768-2.321.991-4.417.991-10.3s-.223-7.977-.991-10.29C202.487,320.946,197.646,317.855,191.154,317.855Zm6.985,27.9a7.395,7.395,0,0,1-13.918,0c-.445-1.384-.659-3.309-.659-8.583,0-5.34.214-7.2.659-8.584a7.395,7.395,0,0,1,13.918,0c.446,1.384.66,3.244.66,8.584C198.8,342.448,198.584,344.373,198.139,345.757Z" fill="#333"/><path d="M232.73,334.035l-1.981-.268c-5.061-.72-6.876-2.484-6.876-5.072,0-2.912,2.091-5,5.889-5a15.714,15.714,0,0,1,8.964,2.921l.772-.17,2.642-4.077-.114-.76a20.524,20.524,0,0,0-12.1-3.754c-7.7,0-12.66,4.515-12.66,11.285,0,6.221,4.073,9.684,11.285,10.67l1.978.284c5.169.72,6.819,2.468,6.819,5.169,0,3.131-2.58,5.388-7.042,5.388a16.751,16.751,0,0,1-10.181-3.956l-.764.048-3.41,3.956.1.825c2.916,2.767,8.251,4.958,13.757,4.958,9.3,0,14.084-4.958,14.084-11.608C243.9,338.444,239.942,335.022,232.73,334.035Z" fill="#333"/><polygon points="253.456 318.463 252.906 319.021 252.906 323.753 253.456 324.295 263.248 324.295 263.579 324.627 263.579 355.327 264.131 355.885 269.526 355.885 270.076 355.327 270.076 324.627 270.404 324.295 280.196 324.295 280.75 323.753 280.75 319.021 280.196 318.463 253.456 318.463" fill="#333"/><rect x="71.197" y="94.267" width="117.259" height="27.732" fill="#333"/><rect x="234.53" y="94.267" width="117.263" height="27.732" fill="#333"/><path d="M370.375,0H52.615A52.616,52.616,0,0,0,0,52.615V372.487A52.616,52.616,0,0,0,52.615,425.1h317.76a52.616,52.616,0,0,0,52.615-52.615V52.615A52.616,52.616,0,0,0,370.375,0Zm29.7,366.023a36.226,36.226,0,0,1-36.226,36.226H59.142a36.226,36.226,0,0,1-36.226-36.226V59.079A36.226,36.226,0,0,1,59.142,22.853H363.848a36.226,36.226,0,0,1,36.226,36.226Z" fill="#333"/><polygon points="260.941 425.102 260.941 489.56 162.049 489.56 162.049 425.102 140.3 425.102 140.3 510.958 282.69 510.958 282.69 425.102 260.941 425.102" fill="#333"/></g></g></svg>