<svg xmlns="http://www.w3.org/2000/svg" viewBox="0 0 18 32.621"><g id="レイヤー_2" data-name="レイヤー 2"><g id="レイヤー_1-2" data-name="レイヤー 1"><path d="M1.4,0H18a0,0,0,0,1,0,0V32.621a0,0,0,0,1,0,0H1.4a1.4,1.4,0,0,1-1.4-1.4V1.4A1.4,1.4,0,0,1,1.4,0Z" fill="#e23137"/><path d="M6.474,8.575a.3.3,0,0,1,.073.084.169.169,0,0,1,.026.073.118.118,0,0,1-.075.1.222.222,0,0,1-.044.026.271.271,0,0,0-.049.031q-.234.191-.479.372t-.454.322c-.139.095-.25.167-.336.217a3.549,3.549,0,0,1-.259.621,4.435,4.435,0,0,1-.333.537,4.281,4.281,0,0,1-.345.423,2.484,2.484,0,0,1-.3.276.4.4,0,0,1-.177.1c-.023,0-.037-.007-.042-.018a.1.1,0,0,1-.006-.031.129.129,0,0,1,.024-.071.369.369,0,0,1,.056-.062,3.316,3.316,0,0,0,.252-.287,5.612,5.612,0,0,0,.334-.473,4.8,4.8,0,0,0,.32-.6,3.029,3.029,0,0,0,.212-.659V9.541c0-.015,0-.031,0-.051a.1.1,0,0,0-.011-.042.238.238,0,0,0-.042-.075A.085.085,0,0,1,4.8,9.316.035.035,0,0,1,4.82,9.28a.155.155,0,0,1,.055-.009.787.787,0,0,1,.131.016.474.474,0,0,1,.148.053.116.116,0,0,1,.066.1.352.352,0,0,1-.013.084c.106-.083.235-.187.387-.314s.3-.258.444-.394L5.4,8.9q-.354.042-.732.093c-.252.034-.5.072-.749.117a.549.549,0,0,1-.1.013.167.167,0,0,1-.128-.066.55.55,0,0,1-.091-.14.376.376,0,0,1-.033-.086c0-.018.006-.028.017-.031a.082.082,0,0,1,.032,0,.262.262,0,0,1,.072.011.6.6,0,0,1,.06.02l.027.007.031,0h.017q.243-.04.549-.078t.617-.072l.592-.067.482-.051.281-.028h.022A.175.175,0,0,1,6.474,8.575Z" fill="#fff"/><path d="M3.787,13.242a.724.724,0,0,1,.142.047c.08.031.173.07.281.117s.214.1.32.153a2.361,2.361,0,0,1,.257.148.125.125,0,0,1,.071.106.313.313,0,0,1-.042.126.137.137,0,0,1-.127.081.122.122,0,0,1-.075-.026c-.041-.032-.1-.072-.172-.12s-.154-.094-.241-.143-.171-.093-.252-.133a1.963,1.963,0,0,0-.21-.09c-.059-.024-.089-.059-.089-.107a.105.105,0,0,1,.023-.07C3.705,13.272,3.743,13.242,3.787,13.242ZM4,15.829a.175.175,0,0,1-.115-.058.546.546,0,0,1-.1-.13.252.252,0,0,1-.042-.117.046.046,0,0,1,.018-.04.089.089,0,0,1,.04-.013.217.217,0,0,1,.04.005.4.4,0,0,0,.057,0c.015,0,.034,0,.057,0a.4.4,0,0,0,.08-.019,3.062,3.062,0,0,0,.615-.247,6.924,6.924,0,0,0,.636-.376c.21-.138.4-.277.584-.418s.332-.267.458-.38a2.506,2.506,0,0,0,.258-.259c.074-.091.135-.137.182-.137.023,0,.035.014.035.04a.586.586,0,0,1-.123.239,3.66,3.66,0,0,1-.359.418,6.4,6.4,0,0,1-.561.506,6.747,6.747,0,0,1-.734.513,5.855,5.855,0,0,1-.88.434A.354.354,0,0,1,4,15.829Z" fill="#fff"/><path d="M5.337,18.292l-.006-.026c-.166.017-.326.037-.483.057s-.295.038-.419.053a.125.125,0,0,1-.031,0H4.371a.171.171,0,0,1-.077-.017.332.332,0,0,1-.073-.057c-.092.12-.19.237-.3.351a2.92,2.92,0,0,1-.3.279.4.4,0,0,1-.208.108.028.028,0,0,1-.031-.031.241.241,0,0,1,.089-.15,4.356,4.356,0,0,0,.513-.646,3.619,3.619,0,0,0,.294-.546,1.084,1.084,0,0,0,.095-.312l0-.022,0-.018a.191.191,0,0,0-.019-.064.1.1,0,0,1-.016-.05.037.037,0,0,1,0-.023c0-.012.02-.017.053-.017a.52.52,0,0,1,.119.021.626.626,0,0,1,.144.062.118.118,0,0,1,.064.1,1.046,1.046,0,0,1-.091.276,2.751,2.751,0,0,1-.285.5c.023,0,.081,0,.17-.015l.332-.038.42-.049c.149-.017.294-.036.435-.055s.269-.037.381-.055.2-.033.247-.044a.453.453,0,0,0,.049-.02.132.132,0,0,1,.062-.011.286.286,0,0,1,.159.057c.056.039.084.078.084.12a.077.077,0,0,1-.022.057.262.262,0,0,1-.115.042c-.062.013-.162.028-.3.044s-.333.038-.583.064a.148.148,0,0,1,.013.067c0,.008,0,.018,0,.028s0,.022-.007.034a3.386,3.386,0,0,1-.254.747,4.247,4.247,0,0,1-.756,1.1,2.594,2.594,0,0,1-.341.3.464.464,0,0,1-.21.107.045.045,0,0,1-.039-.018.049.049,0,0,1-.014-.031c0-.023.033-.063.1-.119a3.889,3.889,0,0,0,.276-.3,5.211,5.211,0,0,0,.347-.467,4.223,4.223,0,0,0,.332-.606,3.532,3.532,0,0,0,.23-.71v-.03A.173.173,0,0,0,5.337,18.292Z" fill="#fff"/><path d="M4.97,24.856a.644.644,0,0,1-.048-.164.842.842,0,0,1-.016-.147q0-.381,0-.763V22.473c0-.182,0-.359,0-.533a.27.27,0,0,0-.024-.13.149.149,0,0,1-.024-.06c0-.029.007-.048.022-.055a.1.1,0,0,1,.048-.011.29.29,0,0,1,.146.04.234.234,0,0,1,.12.092.521.521,0,0,1,.017.16c0,.144,0,.3,0,.457v1.258q0,.4,0,.859a.92.92,0,0,1-.015.138.686.686,0,0,1-.051.166c-.024.05-.053.075-.089.075S4.993,24.905,4.97,24.856Z" fill="#fff"/><path d="M4.442,26.2a.37.37,0,0,0-.042-.066.105.105,0,0,1-.025-.062.045.045,0,0,1,0-.022c.006-.015.029-.023.071-.023a.5.5,0,0,1,.1.012.885.885,0,0,1,.09.023.158.158,0,0,1,.1.079.366.366,0,0,1,.017.121v1c.107.026.231.062.374.105s.285.093.426.145.267.1.376.146a1.158,1.158,0,0,1,.222.111.117.117,0,0,1,.046.052.173.173,0,0,1,.011.06.231.231,0,0,1-.035.123.109.109,0,0,1-.1.058.153.153,0,0,1-.059-.013l-.051-.022c-.1-.051-.219-.107-.356-.168s-.279-.123-.427-.181a4.2,4.2,0,0,0-.429-.147V29.29a.458.458,0,0,1-.019.137.117.117,0,0,1-.082.079.062.062,0,0,1-.027,0,.126.126,0,0,1-.1-.047.371.371,0,0,1-.061-.106c-.015-.041-.025-.072-.031-.095a.1.1,0,0,1,0-.032.151.151,0,0,1,.016-.068.128.128,0,0,0,.016-.06V26.327A.283.283,0,0,0,4.442,26.2Z" fill="#fff"/><path d="M3.771,5.227l-.18.894.894-.18L6.6,3.824,5.888,3.11Zm.59.482L3.912,5.8,4,5.351ZM6.247,3.824,4.539,5.532,4.18,5.173,5.538,3.815l.357.357L6.072,4l-.357-.357.173-.173Z" fill="#fff"/></g></g></svg>