<svg xmlns="http://www.w3.org/2000/svg" viewBox="0 0 370.249 97.97"><g id="レイヤー_2" data-name="レイヤー 2"><g id="レイヤー_1-2" data-name="レイヤー 1"><path d="M159.425,86.081c0,6.582,11.5,11.889,25.7,11.889s25.7-5.307,25.7-11.889V50.2c0-6.582-11.5-11.889-25.7-11.889s-25.7,5.307-25.7,11.889Z" fill="#5d2d2d"/><path d="M142.524,61.8c0,7.079,19.1,12.789,42.6,12.789s42.6-5.71,42.6-12.789v-38.6c0-7.079-19.1-12.789-42.6-12.789s-42.6,5.71-42.6,12.789Z" fill="#6e3333"/><path d="M142.525,47.7c0,5.915,19.1,10.685,42.6,10.685s42.6-4.77,42.6-10.685V15.456c0-5.915-19.1-10.685-42.6-10.685s-42.6,4.77-42.6,10.685Z" fill="#040000" opacity="0.1" style="isolation:isolate"/><path d="M0,0H370.249V23.628a18.878,18.878,0,0,1-18.878,18.878H18.878A18.878,18.878,0,0,1,0,23.628V0Z" fill="#e34e4c"/></g></g></svg>