<svg xmlns="http://www.w3.org/2000/svg" viewBox="0 0 370.8 1271.96"><g id="レイヤー_2" data-name="レイヤー 2"><g id="_5" data-name="5"><path d="M370.8,172.7V410.9A16.836,16.836,0,0,1,354,427.7H16.8A16.836,16.836,0,0,1,0,410.9V172.7C0,77.7,77.7,0,172.7,0h25.4a172.139,172.139,0,0,1,82.8,21.2A174.841,174.841,0,0,1,349.6,90,171.458,171.458,0,0,1,370.8,172.7Z" fill="#e34e4c"/><path d="M305.858,212.985H65.034c-19.512,0-35.451-13.358-35.451-29.711v-3.838c0-12.207,11.908-22.264,26.565-22.264h258.5c14.565,0,26.565,9.98,26.565,22.264v3.838C341.217,199.627,325.278,212.985,305.858,212.985Z" fill="#5b2d2d"/><path d="M337.919,185.808H32.881c-4.214,0-7.695-2.918-7.695-6.449v-2.841c0-17.734,17.313-32.244,38.473-32.244H307.141c21.16,0,38.473,14.51,38.473,32.244v2.841C345.614,182.89,342.225,185.808,337.919,185.808Z" fill="#b82b2a"/><path d="M146.9,91.716a10.866,10.866,0,0,0-2.565-3.517,12.287,12.287,0,0,0-4.029-2.418,16.317,16.317,0,0,0-5.495-.879H119.647v35.606h7.619V107.1h7.473a16.292,16.292,0,0,0,5.5-.88,13.571,13.571,0,0,0,4.029-2.344,11.147,11.147,0,0,0,2.564-3.59,10.423,10.423,0,0,0,.88-4.176A10.915,10.915,0,0,0,146.9,91.716Zm-8.279,7.839a6.076,6.076,0,0,1-4.176,1.318H127.34V91.056h7.106a6.234,6.234,0,0,1,4.176,1.392,4.55,4.55,0,0,1,1.539,3.59A4.643,4.643,0,0,1,138.622,99.555Z" fill="#e7e5d7"/><path d="M182.286,98.089a19.156,19.156,0,0,0-.512-3.736,12.015,12.015,0,0,0-1.1-3.224,11.3,11.3,0,0,0-2.345-2.784,14.83,14.83,0,0,0-4.469-2.784,18.321,18.321,0,0,0-5.934-.952,16.277,16.277,0,0,0-5.934.952,15.179,15.179,0,0,0-4.543,2.784,12.693,12.693,0,0,0-2.271,2.784,9.9,9.9,0,0,0-1.1,3.224,14.94,14.94,0,0,0-.439,3.736c-.073,1.392-.073,2.931-.073,4.543,0,1.758.073,3.3.073,4.615a20.133,20.133,0,0,0,.439,3.81,10.447,10.447,0,0,0,3.37,6.007,17.769,17.769,0,0,0,4.543,2.711,16.277,16.277,0,0,0,5.934.952,16.545,16.545,0,0,0,5.934-.952,16.194,16.194,0,0,0,4.469-2.711,11.814,11.814,0,0,0,2.345-2.857,8.97,8.97,0,0,0,1.1-3.15,19.936,19.936,0,0,0,.512-3.81c.074-1.319.074-2.857.074-4.615C182.36,101.02,182.286,99.481,182.286,98.089Zm-7.765,8.865a22.153,22.153,0,0,1-.293,2.711,6.1,6.1,0,0,1-.587,1.758,8.18,8.18,0,0,1-.879,1.319,6.951,6.951,0,0,1-2.124,1.319,6.856,6.856,0,0,1-2.858.586,7.11,7.11,0,0,1-2.857-.586,10.373,10.373,0,0,1-2.124-1.319,4.148,4.148,0,0,1-.88-1.319,4.479,4.479,0,0,1-.586-1.758,13.347,13.347,0,0,1-.293-2.711c-.073-1.1-.073-2.491-.073-4.249,0-1.612,0-3.077.073-4.176a26.954,26.954,0,0,1,.293-2.857,4.958,4.958,0,0,1,.586-1.759,4.807,4.807,0,0,1,.88-1.245,5.777,5.777,0,0,1,2.124-1.319,6.257,6.257,0,0,1,2.857-.586,6.065,6.065,0,0,1,2.858.586,7.929,7.929,0,0,1,2.124,1.319,7.568,7.568,0,0,1,.879,1.245,7.031,7.031,0,0,1,.587,1.759,14.969,14.969,0,0,1,.293,2.857c.073,1.1.073,2.491.073,4.176A25.835,25.835,0,0,1,174.521,106.954Z" fill="#e7e5d7"/><path d="M216.353,105.709a6.308,6.308,0,0,0-2.344-3.151,8.277,8.277,0,0,0-3-1.831,20.186,20.186,0,0,0-4.469-1.026l-4.689-.586a7.512,7.512,0,0,1-2.124-.513,6.46,6.46,0,0,1-1.392-.879,3.544,3.544,0,0,1-.953-1.172,4.529,4.529,0,0,1-.219-1.319,3.816,3.816,0,0,1,1.465-3.15c.952-.953,2.491-1.319,4.542-1.319a19.92,19.92,0,0,1,4.03.44,8.161,8.161,0,0,1,4.029,2.051l4.835-4.4a14.6,14.6,0,0,0-5.568-3.15,25.278,25.278,0,0,0-7.106-.952,20.493,20.493,0,0,0-5.788.805,15.992,15.992,0,0,0-4.322,2.2,11.712,11.712,0,0,0-2.638,3.37,11.007,11.007,0,0,0-.952,4.4q0,4.615,2.857,7.033a8.608,8.608,0,0,0,3.077,1.832,22.146,22.146,0,0,0,4.469,1.1l4.689.586a13.929,13.929,0,0,1,2.2.44,4.671,4.671,0,0,1,1.319.732,3.977,3.977,0,0,1,1.172,3,3.9,3.9,0,0,1-1.685,3.3,9.756,9.756,0,0,1-5.275,1.1,22.753,22.753,0,0,1-5.055-.586,11.348,11.348,0,0,1-4.323-2.345l-4.908,4.469a14.8,14.8,0,0,0,6.373,3.663,29.152,29.152,0,0,0,7.913,1.026,24.044,24.044,0,0,0,5.788-.733,12.761,12.761,0,0,0,4.615-2.124,9.448,9.448,0,0,0,3-3.37,9.273,9.273,0,0,0,1.1-4.543A10.481,10.481,0,0,0,216.353,105.709Z" fill="#e7e5d7"/><path d="M223.02,84.9v6.154h10.257v29.452H240.9V91.056h10.257V84.9Z" fill="#e7e5d7"/><rect x="168.623" y="34.717" width="33.554" height="9.671" fill="#e7e5d7"/><rect x="180.638" y="49.956" width="9.671" height="27.986" fill="#e7e5d7"/><rect x="162.469" y="48.124" width="45.862" height="9.671" fill="#e7e5d7"/><rect x="0.275" y="314.807" width="370.249" height="957.154" fill="#e34e4c"/></g></g></svg>