<svg xmlns="http://www.w3.org/2000/svg" viewBox="0 0 512 512"><g id="レイヤー_2" data-name="レイヤー 2"><g id="_3" data-name="3"><rect width="512" height="512" fill="#f6b597"/><path d="M434.278,461.926H82.893s.461-5.581,1.126-13.67c1.229-14.9,3.226-38.3,4.454-50.842,1.843-19.354,14.746-33.843,33.28-40.294,9.216-3.226,33.28-12.083,54.989-20.173l.563-.2c7.578-2.816,14.848-5.478,21.043-7.834,1.126-.41,2.2-.819,3.277-1.178,4.813-1.792,8.806-3.328,11.674-4.352,1.075-.41,1.946-.768,2.662-1.024h.051c1.229-.461,1.894-.717,1.894-.717l40.7,1.178,2.509-.051,38.144-1.126s.666.256,1.946.717c.717.256,1.638.614,2.714,1.024,3.072,1.126,7.424,2.765,12.7,4.762.717.256,1.434.512,2.2.819,8.653,3.174,19.354,7.168,30.054,11.11v.051l7.219,2.611c3.533,1.331,7.066,2.611,10.5,3.891,1.126.41,2.253.819,3.328,1.229,2.2.819,4.3,1.587,6.349,2.355,5.171,1.894,9.83,3.584,13.517,4.915q1.152.384,2.15.768,2,.692,3.533,1.229c18.483,6.451,31.437,20.941,33.28,40.294S434.278,461.926,434.278,461.926Z" fill="#607280"/><polygon points="257.382 347.29 257.382 461.261 201.574 461.261 201.574 413.901 153.549 423.219 170.598 339.558 176.742 336.947 177.306 336.742 198.195 327.936 200.038 327.168 201.626 327.731 213.299 331.827 257.382 347.29" fill="#e9e8e8"/><polygon points="319.325 327.15 348.76 339.545 365.8 423.2 317.78 413.9 317.78 461.245 262.005 461.245 262.005 347.295 319.325 327.15" fill="#e9e8e8"/><path d="M355.277,146.586V188.16c-46.234,0-64.358,22.221-84.07,40.6-3.277,3.021-6.554,5.939-10.086,8.653-11.213,8.7-24.32,15.053-43.776,15.053.666-5.939-.87-12.493-4.045-18.944-9.062-18.586-31.283-36.4-51.4-36.557V146.586a65.6,65.6,0,0,1,5.786-25.7,97.846,97.846,0,0,1,50.125-50.125,101.108,101.108,0,0,1,40.806-8.346,99.776,99.776,0,0,1,23.6,2.714,97.344,97.344,0,0,1,35.84,16.486c1.178.87,2.3,1.741,3.379,2.662.1.051.2.154.307.2l.1.1c.922.717,1.792,1.485,2.611,2.253.819.666,1.587,1.382,2.355,2.1.922.819,1.741,1.638,2.56,2.509,1.075,1.075,2.1,2.1,3.072,3.226,1.075,1.178,2.1,2.355,3.123,3.584a.92.92,0,0,1,.256.358c.051,0,.051,0,.1.051a.513.513,0,0,1,.2.256,83.4,83.4,0,0,1,7.219,10.138c.461.717.87,1.434,1.28,2.15a73.918,73.918,0,0,1,3.738,7.168c.358.666.614,1.382.922,2.048.1.2.2.461.307.666q1.075,2.535,2,5.069c.41,1.28.819,2.509,1.178,3.84q.615,2.151,1.075,4.3c.307,1.382.563,2.816.768,4.2.2,1.075.307,2.2.41,3.277A38.358,38.358,0,0,1,355.277,146.586Z" fill="#cda671"/><rect x="213.299" y="228.762" width="90.624" height="125.491" fill="#fcedc3"/><path d="M355.277,181.76v50.381q0,1.767-.154,3.533c-.051.973-.154,2-.256,3.021a28.569,28.569,0,0,1-.461,2.918c-.1.614-.2,1.178-.307,1.792-.307,1.382-.614,2.765-.973,4.147-.307,1.126-.666,2.253-1.024,3.379-.614,1.894-1.331,3.84-2.1,5.786-.41.973-.819,1.946-1.28,2.918a80.919,80.919,0,0,1-3.686,7.27c-.666,1.126-1.331,2.253-2.048,3.379-.563.87-1.126,1.792-1.741,2.662a90.068,90.068,0,0,1-9.318,11.725c-.717.768-1.434,1.536-2.2,2.3a35.747,35.747,0,0,1-3.174,3.072c-.87.819-1.741,1.587-2.611,2.355a15.767,15.767,0,0,1-1.485,1.229l-2.458,2c-1.331,1.075-2.714,2.1-4.1,3.021-1.075.768-2.15,1.485-3.277,2.15a2.783,2.783,0,0,1-.87.563,36.271,36.271,0,0,1-3.584,2.1,5.123,5.123,0,0,1-1.229.717,34.066,34.066,0,0,1-3.021,1.587v.051a99.235,99.235,0,0,1-42.8,10.445c-.819.051-1.638.051-2.509.051a100.065,100.065,0,0,1-45.312-10.5c-32.922-16.486-51.4-49.254-51.4-73.677V190.565c57.5,0,71.578-34.406,99.226-52.89,10.138-6.758,22.118-11.418,38.707-11.418C297.267,149.3,328.192,181.555,355.277,181.76Z" fill="#fcf7cb"/><rect x="237.94" y="348.835" width="41.315" height="28.926" fill="#e01e25"/><rect x="237.94" y="374.66" width="41.315" height="9.29" fill="#c12132"/><polygon points="258.611 347.29 257.382 348.467 257.024 348.826 251.443 354.253 237.926 367.309 210.074 394.291 198.349 328.909 198.195 327.936 197.683 325.069 210.074 318.874 213.299 320.768 215.962 322.355 216.013 322.355 258.611 347.29" fill="#fff"/><polygon points="258.595 347.295 307.135 318.89 319.525 325.085 307.135 394.28 258.595 347.295" fill="#fff"/><rect x="237.94" y="380.465" width="41.315" height="81.425" fill="#e01e25"/></g></g></svg>